<?xml version="1.0" encoding="utf-8"?>
<svg viewBox="0 0 24 24" xmlns="http://www.w3.org/2000/svg" xmlns:bx="https://boxy-svg.com">
  <path d="M 5.788 11.346 C 1.439 11.346 -1.279 6.618 0.895 2.836 C 1.905 1.081 3.77 0 5.788 0 C 10.137 0 12.855 4.727 10.68 8.509 C 9.671 10.264 7.806 11.346 5.788 11.346 Z M 5.788 23.952 C 1.439 23.952 -1.279 19.225 0.895 15.443 C 1.905 13.688 3.77 12.606 5.788 12.606 C 10.137 12.606 12.855 17.334 10.68 21.116 C 9.671 22.871 7.806 23.952 5.788 23.952 Z M 18.342 11.346 C 13.993 11.346 11.275 6.618 13.45 2.836 C 14.459 1.081 16.324 0 18.342 0 C 22.691 0 25.409 4.727 23.235 8.509 C 22.225 10.264 20.361 11.346 18.342 11.346 Z M 18.342 23.952 C 13.993 23.952 11.275 19.225 13.45 15.443 C 14.459 13.688 16.324 12.606 18.342 12.606 C 22.691 12.606 25.409 17.334 23.235 21.116 C 22.225 22.871 20.361 23.952 18.342 23.952 Z" style=""/>
  <rect style="" x="12.654" y="12.606" width="11.336" height="11.394" rx="2" ry="2" bx:origin="0.353276 0.5"/>
  <rect style="" y="12.606" width="11.539" height="11.394" rx="2" ry="2" bx:origin="0.607143 0.5"/>
  <rect style="" width="11.539" height="11.394" rx="2" ry="2" bx:origin="0.607143 0.5"/>
</svg>